<svg width="18" height="10" viewBox="0 0 18 10" fill="none" xmlns="http://www.w3.org/2000/svg">
<path d="M1.13253 0.559248C1.28027 0.55905 1.42658 0.588109 1.56303 0.644748C1.69948 0.701387 1.82336 0.784485 1.92753 0.889248L7.68228 6.64325C7.8564 6.81741 8.06312 6.95557 8.29063 7.04983C8.51815 7.14408 8.76201 7.1926 9.00828 7.1926C9.25455 7.1926 9.49841 7.14408 9.72593 7.04983C9.95344 6.95557 10.1602 6.81741 10.3343 6.64325L16.08 0.896748C16.1838 0.789299 16.3079 0.703594 16.4452 0.644634C16.5825 0.585674 16.7301 0.554639 16.8795 0.553341C17.0288 0.552043 17.177 0.580508 17.3152 0.637074C17.4535 0.69364 17.5791 0.777174 17.6847 0.882804C17.7904 0.988433 17.8739 1.11404 17.9305 1.2523C17.987 1.39056 18.0155 1.5387 18.0142 1.68807C18.0129 1.83745 17.9819 1.98507 17.9229 2.12233C17.8639 2.25958 17.7782 2.38372 17.6708 2.4875L11.925 8.234C11.151 9.00663 10.102 9.44057 9.00828 9.44057C7.9146 9.44057 6.8656 9.00663 6.09153 8.234L0.33678 2.48C0.179343 2.32266 0.0721146 2.12216 0.028664 1.90386C-0.0147866 1.68557 0.00749303 1.45929 0.0926836 1.25366C0.177874 1.04803 0.322147 0.872292 0.507246 0.748682C0.692345 0.625072 0.909951 0.559147 1.13253 0.559248Z" fill="white"/>
</svg>
