<svg width="31" height="27" viewBox="0 0 31 27" fill="none" xmlns="http://www.w3.org/2000/svg">
<path d="M29.7109 25.8793H30.0041L29.4423 25.0294C29.7858 25.0294 29.968 24.8111 29.9705 24.5438C29.9705 24.5334 29.9705 24.5218 29.9692 24.5115C29.9692 24.1472 29.7497 23.9728 29.2989 23.9728H28.5704V25.8793H28.8442V25.0488H29.1813L29.7109 25.8793ZM29.162 24.8331H28.8442V24.1885H29.2472C29.4552 24.1885 29.6928 24.2221 29.6928 24.4947C29.6928 24.8073 29.4539 24.8331 29.162 24.8331Z" fill="#BFACD8"/>
<path d="M22.3342 22.636H18.4502V16.5535C18.4502 15.103 18.4243 13.2365 16.43 13.2365C14.4073 13.2365 14.0973 14.8162 14.0973 16.4489V22.636H10.2145V10.1275H13.9435V11.8363H13.9952C14.756 10.5369 16.1691 9.76063 17.6739 9.81617C21.6109 9.81617 22.3355 12.406 22.3355 15.7733L22.3342 22.636ZM5.83188 8.41729C4.58671 8.41729 3.57792 7.4085 3.57792 6.16334C3.57792 4.91817 4.58671 3.90938 5.83188 3.90938C7.07704 3.90938 8.08583 4.91817 8.08583 6.16334C8.08583 7.4085 7.07704 8.41729 5.83188 8.41729ZM7.77325 22.636H3.88533V10.1275H7.77325V22.636ZM24.2704 0.303043H1.93363C0.878333 0.291418 0.0129167 1.13746 0 2.19275V24.6213C0.0129167 25.6778 0.878333 26.5239 1.93363 26.5123H24.2704C25.3283 26.5252 26.1976 25.6791 26.2118 24.6213V2.19146C26.1963 1.13358 25.327 0.287543 24.2704 0.301751" fill="#BFACD8"/>
<path d="M29.1955 23.1242C28.2087 23.1333 27.4156 23.9418 27.426 24.9287C27.435 25.9155 28.2436 26.7086 29.2304 26.6983C30.2172 26.6892 31.0103 25.8806 31 24.8938C30.991 23.9199 30.203 23.1333 29.2304 23.1242H29.1955ZM29.2369 26.4929C28.3715 26.5071 27.6171 25.8186 27.6029 24.9532C27.5887 24.0878 28.2785 23.3748 29.1439 23.3606C30.0093 23.3464 30.7223 24.0361 30.7365 24.9015C30.7365 24.9106 30.7365 24.9183 30.7365 24.9274C30.7546 25.7734 30.0829 26.4748 29.2369 26.4929H29.1968Z" fill="#BFACD8"/>
</svg>
